<svg id="Logos" xmlns="http://www.w3.org/2000/svg" xmlns:xlink="http://www.w3.org/1999/xlink" width="80" height="80" viewBox="0 0 80 80"><defs><style>.cls-1{fill:url(#linear-gradient);}.cls-2{fill:#2684ff;}</style><linearGradient id="linear-gradient" x1="35.44" y1="42.47" x2="18.37" y2="72.05" gradientUnits="userSpaceOnUse"><stop offset="0" stop-color="#0052cc"/><stop offset="0.92" stop-color="#2684ff"/></linearGradient></defs><title>atlassian-icon-gradient-blue</title><path class="cls-1" d="M26.57,37.48a1.88,1.88,0,0,0-3.19.35L7.21,70.18A1.93,1.93,0,0,0,8.94,73H31.46a1.86,1.86,0,0,0,1.73-1.07C38.05,61.86,35.1,46.6,26.57,37.48Z"/><path class="cls-2" d="M38.44,8.06A42.65,42.65,0,0,0,36,50.18L46.81,71.9A1.93,1.93,0,0,0,48.54,73H71.06a1.93,1.93,0,0,0,1.73-2.79L41.73,8.05A1.83,1.83,0,0,0,38.44,8.06Z"/></svg>